<?xml version="1.0" encoding="UTF-8" standalone="no"?>
<svg
   xmlns:dc="http://purl.org/dc/elements/1.1/"
   xmlns:cc="http://creativecommons.org/ns#"
   xmlns:rdf="http://www.w3.org/1999/02/22-rdf-syntax-ns#"
   xmlns:svg="http://www.w3.org/2000/svg"
   xmlns="http://www.w3.org/2000/svg"
   xmlns:sodipodi="http://sodipodi.sourceforge.net/DTD/sodipodi-0.dtd"
   xmlns:inkscape="http://www.inkscape.org/namespaces/inkscape"
   version="1.1"
   width="595.27557"
   height="150"
   id="svg31"
   sodipodi:docname="logo-cpsoftware.svg"
   inkscape:version="0.92.3 (2405546, 2018-03-11)">
  <metadata
     id="metadata37">
    <rdf:RDF>
      <cc:Work
         rdf:about="">
        <dc:format>image/svg+xml</dc:format>
        <dc:type
           rdf:resource="http://purl.org/dc/dcmitype/StillImage" />
        <dc:title></dc:title>
      </cc:Work>
    </rdf:RDF>
  </metadata>
  <defs
     id="defs35" />
  <sodipodi:namedview
     pagecolor="#ffffff"
     bordercolor="#666666"
     borderopacity="1"
     objecttolerance="10"
     gridtolerance="10"
     guidetolerance="10"
     inkscape:pageopacity="0"
     inkscape:pageshadow="2"
     inkscape:window-width="1331"
     inkscape:window-height="747"
     id="namedview33"
     showgrid="false"
     inkscape:zoom="0.56064347"
     inkscape:cx="363.53853"
     inkscape:cy="417.72618"
     inkscape:window-x="35"
     inkscape:window-y="21"
     inkscape:window-maximized="1"
     inkscape:current-layer="text8" />
  <g
     id="Layer1000"
     transform="translate(0,-691.88977)">
    <g
       id="g68">
      <g
         aria-label="cpsoftware"
         style=""
         id="text8">
        <path
           d="m 201.55957,784.97398 v 4.90667 q 0,13.01333 -12.26666,13.01333 h -6.61334 q -12.26666,0 -12.26666,-13.01333 v -50.56 q 0,-13.01333 12.26666,-13.01333 h 6.61334 q 12.26666,0 12.26666,13.01333 v 8.64 h -10.24 v -7.89333 q 0,-4.48 -4.58666,-4.48 h -2.02667 q -4.05333,0 -4.05333,4.48 v 49.06666 q 0,4.48 4.05333,4.48 h 2.56 q 4.05333,0 4.05333,-4.48 v -4.16 z"
           style="font-size:106.66666412px;font-family:BigNoodleTitling;fill:#008bcb"
           id="path89" />
        <path
           d="m 209.4879,726.30732 h 18.66667 q 12.37333,0 12.37333,13.12 v 22.72 q 0,13.01333 -12.26666,13.01333 h -8.53334 v 27.73333 h -10.24 z m 10.24,39.57333 h 6.50667 q 4.05333,0 4.05333,-4.48 v -21.33333 q 0,-4.48 -4.58666,-4.48 h -5.97334 z"
           style="font-size:106.66666412px;font-family:BigNoodleTitling;fill:#008bcb"
           id="path91" />
        <path
           d="m 268.28123,746.89398 v -6.72 q 0,-4.58666 -4.48,-4.58666 h -1.6 q -4.37333,0 -4.37333,4.58666 v 12.69334 q 0,2.13333 0.85333,2.88 0.85334,0.74666 2.77334,1.92 l 9.70666,5.22666 q 3.2,1.81334 4.48,2.88 1.38667,0.96 2.13334,2.45334 0.74666,1.38666 0.74666,5.44 v 16.32 q 0,12.90666 -12.37333,12.90666 h -6.29333 q -12.26667,0 -12.26667,-14.08 v -3.84 h 10.24 v 4.16 q 0,4.48 4.58667,4.48 h 1.81333 q 4.05333,0 4.05333,-4.48 v -13.01333 q 0,-2.13333 -0.85333,-2.88 -0.85333,-0.74667 -2.77333,-1.92 l -9.70667,-5.44 q -3.2,-1.70667 -4.69333,-2.88 -1.38667,-1.17333 -2.02667,-2.98667 -0.64,-1.92 -0.64,-4.90666 v -15.68 q 0,-13.12 12.26667,-13.12 h 6.4 q 12.26666,0 12.26666,13.12 v 7.46666 z"
           style="font-size:106.66666412px;font-family:BigNoodleTitling;fill:#008bcb"
           id="path93" />
        <path
           d="m 298.8279,802.89398 q -12.37334,0 -12.37334,-13.01333 v -50.45333 q 0,-13.12 12.26667,-13.12 h 9.81333 q 12.26667,0 12.26667,13.12 v 50.45333 q 0,13.01333 -12.37333,13.01333 z m 2.45333,-9.28 h 5.22667 q 4.05333,0 4.05333,-4.48 v -49.06666 q 0,-4.48 -4.58667,-4.48 h -4.8 q -4.48,0 -4.48,4.48 v 49.06666 q 0,4.48 4.58667,4.48 z"
           style="font-size:106.66666412px;font-family:BigNoodleTitling;fill:#008bcb"
           id="path95" />
        <path
           d="m 353.58457,758.84065 v 9.28 h -13.44 v 34.77333 h -10.24 v -76.58666 h 25.38666 v 9.28 h -15.14666 v 23.25333 z"
           style="font-size:106.66666412px;font-family:BigNoodleTitling;fill:#008bcb"
           id="path97" />
        <path
           d="m 378.51622,735.58732 v 67.30666 h -10.24 v -67.30666 h -9.81333 v -9.28 h 29.86667 v 9.28 z"
           style="font-size:106.66666412px;font-family:BigNoodleTitling;fill:#008bcb"
           id="path99" />
        <path
           d="m 447.82622,726.30732 -11.30667,76.58666 h -11.09333 l -6.29333,-44.37333 -6.18667,44.37333 h -11.09333 l -11.30667,-76.58666 h 10.13333 l 7.25334,57.38666 7.25333,-57.38666 h 8 l 7.25333,57.38666 7.25334,-57.38666 z"
           style="font-size:106.66666412px;font-family:BigNoodleTitling;fill:#008bcb"
           id="path101" />
        <path
           d="m 462.42372,802.89398 h -10.24 v -63.46666 q 0,-13.12 12.26667,-13.12 h 7.68 q 12.26666,0 12.26666,13.12 v 63.46666 h -10.24 v -28.05333 h -11.73333 z m 11.73333,-37.33333 v -25.49333 q 0,-4.48 -4.48,-4.48 h -2.77333 q -4.48,0 -4.48,4.48 v 25.49333 z"
           style="font-size:106.66666412px;font-family:BigNoodleTitling;fill:#008bcb"
           id="path103" />
        <path
           d="m 493.65455,726.30732 h 20.05334 q 11.73333,0 11.73333,13.12 v 18.88 q 0,10.02666 -6.08,12.69333 l 7.14667,31.89333 h -9.70667 l -6.72,-30.93333 h -6.18667 v 30.93333 h -10.24 z m 10.24,36.90666 h 6.72 q 4.58667,0 4.58667,-5.54666 v -16.53334 q 0,-5.54666 -4.58667,-5.54666 h -6.72 z"
           style="font-size:106.66666412px;font-family:BigNoodleTitling;fill:#008bcb"
           id="path105" />
        <path
           d="m 534.07121,802.89398 v -76.58666 h 25.38667 v 9.28 h -15.14667 v 23.25333 h 13.44 v 9.28 h -13.44 v 25.49333 h 15.14667 v 9.28 z"
           style="font-size:106.66666412px;font-family:BigNoodleTitling;fill:#008bcb"
           id="path107" />
      </g>
      <g
         id="g51"
         transform="translate(8.9183243,344.2473)">
        <path
           d="m 71.9419,401.8117 -19.2268,-12.2893 19.0792,-12.5253 19.3975,12.443 z"
           style="fill:#4fc6f5;fill-rule:evenodd"
           id="path2"
           inkscape:connector-curvature="0" />
        <path
           d="M 91.9325,391.0888 72.9453,403.107 72.8812,425.423 91.9664,413.187 Z"
           style="fill:#00a9ec;fill-rule:evenodd"
           id="path4"
           inkscape:connector-curvature="0" />
        <path
           d="m 51.7813,391.0888 18.9871,12.0182 0.0642,22.316 -19.0852,-12.236 z"
           style="fill:#00a9ec;fill-rule:evenodd"
           id="path10"
           inkscape:connector-curvature="0" />
        <path
           d="m 114.3699,401.8117 -19.2268,-12.2893 19.0791,-12.5253 19.3975,12.443 z"
           style="fill:#4fc6f5;fill-rule:evenodd"
           id="path12"
           inkscape:connector-curvature="0" />
        <path
           d="m 134.3604,391.0888 -18.9871,12.0182 -0.0641,22.316 19.0851,-12.236 z"
           style="fill:#00a9ec;fill-rule:evenodd"
           id="path14"
           inkscape:connector-curvature="0" />
        <path
           d="m 94.2093,391.0888 18.9871,12.0182 0.0641,22.316 -19.0851,-12.236 z"
           style="fill:#00a9ec;fill-rule:evenodd"
           id="path16"
           inkscape:connector-curvature="0" />
        <path
           d="m 93.0908,440.0984 -19.2268,-12.2893 19.0791,-12.5253 19.3975,12.443 z"
           style="fill:#008bcb;fill-rule:evenodd"
           id="path18"
           inkscape:connector-curvature="0" />
        <path
           d="m 113.0813,429.3755 -18.9871,12.0181 -0.0642,22.3161 19.0852,-12.236 z"
           style="fill:#008bcb;fill-rule:evenodd"
           id="path20"
           inkscape:connector-curvature="0" />
        <path
           d="m 72.9301,429.3755 18.9872,12.0181 0.0641,22.3161 -19.0852,-12.236 z"
           style="fill:#008bcb;fill-rule:evenodd"
           id="path22"
           inkscape:connector-curvature="0" />
        <path
           d="m 50.4286,440.0984 -19.2268,-12.2893 19.0791,-12.5253 19.3975,12.443 z"
           style="fill:#008bcb;fill-rule:evenodd"
           id="path24"
           inkscape:connector-curvature="0" />
        <path
           d="M 70.4191,429.3755 51.432,441.3936 51.3678,463.7097 70.453,451.4737 Z"
           style="fill:#008bcb;fill-rule:evenodd"
           id="path26"
           inkscape:connector-curvature="0" />
        <path
           d="m 30.2679,429.3755 18.9871,12.0181 0.0642,22.3161 -19.0852,-12.236 z"
           style="fill:#008bcb;fill-rule:evenodd"
           id="path28"
           inkscape:connector-curvature="0" />
      </g>
    </g>
  </g>
</svg>
